# xmcd CD database file
#
# Track frame offsets:
#	150
#	17240
#	34805
#	50482
#	67558
#	85121
#
# Disc length: 1343 seconds
#
# Revision: 2
# Processed by: cddbd v1.5.2PL0 Copyright (c) Steve Scherf et al.
# Submitted via: CDex 1.70beta2
#
DISCID=3f053d06
DTITLE=NMB48 - 純情U-19 -Type-B-
DYEAR=1900
DGENRE=Blues
TTITLE0=純情U-19
TTITLE1=場当たりGO!／アンダーガールズ
TTITLE2=右へ曲がれ!／紅組
TTITLE3=純情U-19 -off vocal ver.-
TTITLE4=場当たりGO! -off vocal ver.-／アンダーガールズ
TTITLE5=右へ曲がれ! -off vocal ver.-／紅組
EXTD=
EXTT0=
EXTT1=
EXTT2=
EXTT3=
EXTT4=
EXTT5=
PLAYORDER=
